<svg width="30" height="30" viewBox="0 0 30 30" fill="none" xmlns="http://www.w3.org/2000/svg">
<g filter="url(#filter0_d_4802_18)">
<path fill-rule="evenodd" clip-rule="evenodd" d="M7.425 5.625H22.575V6.75L22.5803 5.62501C23.0382 5.62716 23.4797 5.79601 23.8223 6.1C24.1648 6.40398 24.3849 6.82229 24.4414 7.27675L24.4431 7.29158L25.7741 19.289C25.7742 19.2896 25.7742 19.2901 25.7743 19.2906C25.8036 19.5515 25.7778 19.8156 25.6986 20.0659C25.6192 20.3167 25.4879 20.548 25.3133 20.7447C25.1386 20.9415 24.9246 21.0992 24.685 21.2078C24.4454 21.3164 24.1856 21.3734 23.9225 21.375L23.9156 21.375H6.07746C5.8144 21.3734 5.55463 21.3164 5.31503 21.2078C5.07543 21.0992 4.86136 20.9415 4.68673 20.7447C4.5121 20.548 4.38082 20.3167 4.30143 20.0659C4.2222 19.8157 4.19641 19.5516 4.22571 19.2907C4.22577 19.2902 4.22583 19.2896 4.2259 19.289L5.55686 7.29158L5.55861 7.27675C5.61514 6.82229 5.83523 6.40398 6.17775 6.1C6.52027 5.79601 6.96177 5.62716 7.41972 5.62501L7.425 5.625ZM22.2441 7.875H7.75594L6.5079 19.125H23.4921L22.2441 7.875Z" fill="#8D8D99"/>
<path fill-rule="evenodd" clip-rule="evenodd" d="M15 4.125C14.3038 4.125 13.6361 4.40156 13.1438 4.89384C12.6516 5.38613 12.375 6.05381 12.375 6.75V9.75C12.375 10.3713 11.8713 10.875 11.25 10.875C10.6287 10.875 10.125 10.3713 10.125 9.75V6.75C10.125 5.45707 10.6386 4.21709 11.5529 3.30285C12.4671 2.38861 13.7071 1.875 15 1.875C16.2929 1.875 17.5329 2.38861 18.4471 3.30285C19.3614 4.21709 19.875 5.45707 19.875 6.75V9.75C19.875 10.3713 19.3713 10.875 18.75 10.875C18.1287 10.875 17.625 10.3713 17.625 9.75V6.75C17.625 6.05381 17.3484 5.38613 16.8562 4.89384C16.3639 4.40156 15.6962 4.125 15 4.125Z" fill="#8D8D99"/>
</g>
<defs>
<filter id="filter0_d_4802_18" x="-1" y="0" width="32" height="32" filterUnits="userSpaceOnUse" color-interpolation-filters="sRGB">
<feFlood flood-opacity="0" result="BackgroundImageFix"/>
<feColorMatrix in="SourceAlpha" type="matrix" values="0 0 0 0 0 0 0 0 0 0 0 0 0 0 0 0 0 0 127 0" result="hardAlpha"/>
<feOffset dy="4"/>
<feGaussianBlur stdDeviation="2"/>
<feComposite in2="hardAlpha" operator="out"/>
<feColorMatrix type="matrix" values="0 0 0 0 0 0 0 0 0 0 0 0 0 0 0 0 0 0 0.25 0"/>
<feBlend mode="normal" in2="BackgroundImageFix" result="effect1_dropShadow_4802_18"/>
<feBlend mode="normal" in="SourceGraphic" in2="effect1_dropShadow_4802_18" result="shape"/>
</filter>
</defs>
</svg>
